<svg xmlns="http://www.w3.org/2000/svg" width="56" height="56" stroke="#fff" fill="none" xmlns:v="https://vecta.io/nano"><path d="M14.238 18.073c-6.67-.53-12.277 7.354-9.52 13.47 2.663 6.625 12.7 8.43 17.485 3.117 4.623-4.53 6.41-11.48 12.036-15.062 5.756-3.927 15.032-.22 16.123 6.767 1.096 6.7-6.11 13.206-12.65 11.223-4.822-1.1-8.29-5.204-10.265-9.528-2.422-4.138-5.59-8.548-10.53-9.71-.878-.2-1.78-.278-2.68-.277z" stroke-width="4.14"/><path stroke-width="1.754" d="M10.308 27.562h8.42"/><path d="M36.132 27.562h7.018m-3.564-3.524v7.018" stroke-width="2.246"/></svg>