<svg xmlns="http://www.w3.org/2000/svg" width="56" height="56" fill="#fff" xmlns:v="https://vecta.io/nano"><path d="M42.972 28.667c0-1.037-.084-2.08-.264-3.1H28.314v5.877h8.243c-.342 1.895-1.44 3.572-3.05 4.637v3.813h4.918c2.888-2.658 4.548-6.583 4.548-11.226z"/><path d="M28.314 43.578c4.116 0 7.587-1.35 10.116-3.684l-4.918-3.813c-1.368.93-3.135 1.458-5.193 1.458-3.98 0-7.357-2.686-8.568-6.297h-5.075v3.93c2.59 5.153 7.867 8.406 13.637 8.406z"/><path d="M19.746 31.24a9.14 9.14 0 0 1 0-5.843v-3.93h-5.07c-2.164 4.312-2.164 9.393 0 13.705l5.07-3.93z"/><path d="M28.314 19.095c2.176-.034 4.28.785 5.854 2.288l4.357-4.357c-2.76-2.59-6.42-4.015-10.21-3.97a15.26 15.26 0 0 0-13.637 8.411l5.07 3.93c1.206-3.617 4.587-6.303 8.568-6.303z"/></svg>