<svg xmlns="http://www.w3.org/2000/svg" width="56" height="56" fill="none" xmlns:v="https://vecta.io/nano"><path d="M44.876 27.02c-.156.01-.283-.078-.354-.217l-5.777-10.496c-.074-.118-.088-.264-.037-.392.21-.59.003-1.246-.508-1.62a1.48 1.48 0 0 0-1.725-.011c-.15.116-.345.155-.528.106l-11.362-2.238c-.176-.01-.323-.14-.358-.306-.556-1.855-3.39-.993-2.782.848.064.16.034.344-.076.478L12.35 25.878c-.122.172-.24.246-.42.18a1.45 1.45 0 0 0-1.566 1.229c-.06.377.037.763.272 1.067s.585.502.97.548a.39.39 0 0 1 .368.299L16.83 40.94c.057.125.068.27.028.417-.418 1.342 1.175 2.413 2.297 1.544.11-.1.25-.13.392-.113l14.62 1.402c.166-.004.316.097.37.25.833 1.87 3.66.43 2.584-1.317a.35.35 0 0 1-.004-.412l7.378-12.58c.066-.15.22-.244.387-.235 1.97.022 1.982-2.893-.004-2.865l-.001-.01zM22.3 15.683l.413-1.752c.034-.147.08-.236.275-.248.365-.018.705-.192.93-.477.09-.14.258-.175.404-.12l11.42 2.24c.03.006.06.02.177.064l-3.594 1.53-10.837 4.635-.166.068c-.116.046-.227.153-.36.042-.125-.104-.033-.218-.007-.325l1.344-5.656zm-.82-.982l.06.04-1.536 6.46c-.02.15-.135.274-.283.31-.562.153-.965.638-1.004 1.2.001.142-.074.275-.198.348l-4.868 2.813c-.04.014-.08.022-.122.028L21.48 14.7zm-3.845 25.2l-.07.278L12.9 28.917a.48.48 0 0 1 .076-.595 1.06 1.06 0 0 0 .27-.821.41.41 0 0 1 .259-.439l5.33-3.087c.1-.058.198-.192.346-.056.132.122.312.18.28.437l-.48 4.037-1.35 11.508zm1.667.9c-.144-.176-.34-.304-.562-.366-.132-.042-.22-.093-.177-.216l.418-3.58.835-7.13.578-4.987c.035-.33.283-.32.48-.44s.263.06.354.14l12.096 10.32a.55.55 0 0 1-.149.876l-13.48 5.463c-.16.065-.27.083-.396-.078l.003-.001zm15.782 1.877a.62.62 0 0 0-.269.228c-.187.385-.5.338-.85.306l-13.996-1.356-.023-.064 2.172-.887 11.357-4.603c.212-.088.346-.01.544.056.566.195.578.626.63 1.08l.57 4.913c.017.14.014.246-.135.323l.001.004zm-.48-9.048c-.023.175-.106.225-.248.29a.35.35 0 0 1-.413-.089L21.825 23.475c-.22-.234-.312-.557-.246-.87.062-.125.217-.14.334-.19l13.972-5.98c.204-.1.363-.14.52.075a.68.68 0 0 0 .293.199c.137.056.194.128.163.218l-2.243 16.693-.016-.003zm1.59 8.74l-.227-1.814-.408-3.477c-.04-.32-.067-.584.278-.834.373-.282.553-.746.464-1.2-.014-.132-.01-.216.11-.296l6.84-4.575c.035-.01.07-.02.106-.025L36.2 42.36zm7.43-14.59a1.03 1.03 0 0 0-.173.809c.046.172-.038.352-.2.43l-7.332 4.933c-.08.056-.147.156-.283.08-.15-.083-.095-.203-.08-.3l2.226-16.533c.017-.122.045-.242.085-.445l1.324 2.388 4.428 8.043c.146.174.15.426.008.604h-.003z" fill="#fff"/><g opacity=".3"><path d="M36.68 16.693c-.114-.038-.215-.103-.293-.19-.156-.203-.316-.16-.52-.072l-13.956 5.69c-.116.048-.272.058-.334.18-.065.297-.048 1.1.172 1.322l12.087 10.54c.1.116.272.152.413.085.142-.06.227-.106.248-.275l2.345-17.078c.033-.08-.024-.15-.16-.203z" fill="#fefefe"/><path d="M33.77 34.665c-4.03-3.276-8.507-7.554-12.54-10.83-.093-.075-.17-.25-.354-.132s-.445.106-.48.42l-.578 4.75-.835 6.79-.868 4.835c-.045.117.045.167.177.205.222.06.418.18.562.348.125.154.234.135.396.074L33.625 35.5a.53.53 0 0 0 .298-.382c.03-.164-.026-.332-.15-.452l-.003-.001z" fill="#f4f5f6"/></g></svg>