<svg xmlns="http://www.w3.org/2000/svg" width="56" height="56" fill="#fff" xmlns:v="https://vecta.io/nano"><path d="M27.752 8c-10.102 0-9.47 4.38-9.47 4.38l.01 4.538h9.64v1.363H14.464S8 17.548 8 27.74s5.642 9.83 5.642 9.83h3.367v-4.73s-.18-5.642 5.552-5.642h9.56s5.372.087 5.372-5.2V13.28S38.31 8 27.753 8zm-5.315 3.052a1.73 1.73 0 0 1 1.734 1.734c0 .96-.775 1.734-1.734 1.734s-1.734-.775-1.734-1.734.775-1.734 1.734-1.734zm5.603 36.532c10.102 0 9.47-4.38 9.47-4.38v-4.538h-9.64v-1.363h13.468s6.464.733 6.464-9.46-5.642-9.83-5.642-9.83h-3.367v4.73s.18 5.642-5.552 5.642h-9.56s-5.372-.087-5.372 5.2v8.727s-.816 5.282 9.74 5.282zm5.315-3.052a1.73 1.73 0 0 1-1.734-1.734c0-.96.775-1.734 1.734-1.734s1.734.775 1.734 1.734-.775 1.734-1.734 1.734z"/></svg>