<svg xmlns="http://www.w3.org/2000/svg" width="56" height="56" xmlns:v="https://vecta.io/nano"><path d="M33.832 9.355c.52-.164.973-.598 1.66-.057.578-.223 1.138-.3 1.64.153.774-.1 1.025.107 1.216.35.17-.004 1.27-.175 1.777.58 1.27-.15 1.67.747 1.216 1.583.26.4.528.798-.078 1.563.214.426.082.888-.424 1.448.133.6-.13 1.022-.6 1.35.088.82-.752 1.296-1.003 1.466-.096.478-.297.928-1.256 1.178-.158.712-.735.835-1.293.984 1.845 1.072 3.427 2.483 3.416 5.945h0l.27.482c2.116 1.287 4.02 5.422 1.043 8.783-.194 1.052-.52 1.808-.81 2.644-.434 3.37-3.268 4.948-4.015 5.135-1.095.834-2.262 1.626-3.84 2.18-1.488 1.535-3.1 2.12-4.72 2.12h0-.072c-1.62.001-3.233-.584-4.72-2.12-1.578-.554-2.745-1.346-3.84-2.18-.747-.187-3.58-1.765-4.015-5.135-.3-.836-.616-1.592-.81-2.644-2.976-3.36-1.073-7.496 1.043-8.783h0l.27-.482c-.01-3.462 1.57-4.873 3.416-5.945-.558-.15-1.135-.272-1.293-.984-.96-.25-1.16-.7-1.256-1.178-.25-.17-1.1-.647-1.003-1.466-.47-.33-.732-.752-.6-1.35-.505-.56-.638-1.022-.424-1.448-.606-.765-.338-1.162-.078-1.563-.455-.836-.053-1.733 1.216-1.583.505-.754 1.607-.582 1.777-.58.19-.242.442-.45 1.216-.35.5-.454 1.062-.376 1.64-.153.236-.186.444-.258.637-.264.37-.01.682.213 1.023.32.83-.272 1.02.1 1.43.252.906-.192 1.182.225 1.616.666h0l.505-.01c1.367.806 2.045 2.446 2.285 3.3.24-.843.92-2.484 2.287-3.3h0l.505.01c.435-.44.7-.857 1.616-.666.408-.15.598-.523 1.43-.252zm-1.638 34.05c-.005-.847-2.347-1.485-4.092-1.41-1.735-.043-4.395.695-4.362 1.64-.028.645 2.088 2.506 4.246 2.413 2.084.036 4.237-1.822 4.208-2.644zm2.106-6.902c-1.344 1.575-2.093 4.447-1.112 5.372.938.72 3.455.618 5.315-1.962 1.35-1.733.898-4.627.127-5.395-1.146-.886-2.79.248-4.33 1.985zm-12.645.475c-1.426-1.655-3.28-2.64-4.478-1.91-.802.6-.95 2.688.193 4.73 1.693 2.433 4.076 2.676 5.057 2.085 1.037-.775.47-3.406-.772-4.903zm6.428-4.26c-2.4 0-4.345 1.794-4.345 4.006s1.945 4.006 4.345 4.006 4.345-1.794 4.345-4.006-1.945-4.006-4.345-4.006zm-12.437 1.83c1.58.703 2.87-7.86.925-7.34-3.225 1.842-2.665 5.94-.925 7.34zm24.31-.107c1.74-1.4 2.3-5.497-.925-7.34-1.944-.52-.656 8.04.925 7.34zm-14.394-9.163c-1.797-1.184-4.386-.426-5.784 1.694s-1.073 4.8.724 5.983 4.386.426 5.784-1.694 1.073-4.8-.724-5.983zm4.87-.214c-1.797 1.184-2.12 3.863-.724 5.983s3.987 2.88 5.784 1.694 2.12-3.863.724-5.983-3.987-2.88-5.784-1.694zm8.03.726c.112-3.637-2.678-5.63-6.033-5.064-1.236.208 5.922 6.458 6.033 5.064zm-21.333-.107c.1 1.394 7.268-4.856 6.033-5.064-3.354-.566-6.145 1.426-6.033 5.064zm10.85-5.912c-2.002-.052-3.923 1.486-3.928 2.378-.006 1.084 1.583 2.194 3.942 2.222 2.41.017 3.946-.888 3.953-2.007.01-1.267-2.19-2.612-3.967-2.593zm-6.797-9.767c.2.235.455.464.174.733-.388-.246-.778-.49-1.7-.666.207.235.636.47.376.705-.487-.19-1.025-.326-1.62-.405.285.238.523.472.3.656-.52-.163-1.24-.382-1.94-.193h0l.444.454c.05.06-1.038.047-1.756.058.262.37.53.726.685 1.36-.07.073-.427.033-.762 0 .344.735.94.92 1.08 1.235-.2.162-.502.12-.82.01.248.518.767.873 1.177 1.293-.104.075-.285.12-.714.068.38.41.837.783 1.38 1.12-.096.113-.427.108-.733.116.492.49 1.125.742 1.718 1.062-.296.205-.507.157-.733.154.42.35 1.133.532 1.795.743-.126.2-.252.253-.52.31.7.394 1.705.214 1.988.415-.068.198-.26.327-.492.434 1.128.067 4.215-.042 4.806-2.413-1.155-1.288-3.264-2.8-6.89-4.67 2.822.96 5.368 2.237 7.5 3.995 2.505-1.184.778-4.17-.444-5.356-.062.313-.132.51-.212.57-.398-.433-.723-.877-1.235-1.293l.003.082.016.166c.013.166 0 .327-.203.456-.275-.375-.646-.7-1.14-.994.237.416.04.542-.087.714h0l-.252-.218a3.7 3.7 0 0 0-1.176-.699zm13.706 0c-.694.257-1.052.59-1.428.917-.128-.172-.324-.3-.087-.714-.493.284-.864.62-1.14.994-.203-.13-.216-.29-.203-.456l.016-.166.003-.082c-.512.417-.837.86-1.235 1.293-.08-.058-.15-.256-.212-.57-1.222 1.186-2.95 4.172-.444 5.356 2.13-1.76 4.677-3.037 7.5-3.995-3.627 1.87-5.736 3.383-6.89 4.67.592 2.37 3.678 2.48 4.806 2.413-.23-.108-.424-.236-.492-.434.283-.2 1.287-.02 1.988-.415-.27-.056-.395-.1-.52-.31.662-.21 1.376-.393 1.795-.743l-.17.006c-.17.005-.343-.007-.565-.16l.224-.117.45-.23c.373-.195.736-.41 1.043-.714-.307-.008-.637-.003-.733-.116.543-.336 1-.7 1.38-1.12-.43.052-.6.007-.714-.068.4-.42.93-.775 1.177-1.293-.32.1-.6.152-.82-.01.14-.315.737-.5 1.08-1.235-.335.033-.69.073-.762 0 .156-.635.423-.99.685-1.36l-.406-.004h-.285l-1.065-.052.444-.454c-.7-.19-1.42.03-1.94.193-.234-.185.004-.418.3-.656-.596.08-1.135.217-1.62.405-.18-.163-.03-.325.148-.488l.12-.108.108-.108c-.92.175-1.31.42-1.7.666-.28-.27-.016-.5.174-.733z" fill="#fff"/></svg>