<svg xmlns="http://www.w3.org/2000/svg" width="56" height="56" fill="#fff" fill-rule="evenodd" xmlns:v="https://vecta.io/nano"><path d="M43.276 18.297L30.62 11.164c-.666-.375-1.5-.14-1.886.526-.117.207-.178.442-.178.68v30.97c0 .765.62 1.385 1.385 1.385a1.39 1.39 0 0 0 .688-.183l3.4-1.947c.43-.247.697-.705.697-1.202v-6.767l2.57 1.46c.665.378 1.5.145 1.888-.52.12-.213.183-.453.18-.698l-.037-3.663c-.005-.5-.268-.94-.693-1.186l-3.9-2.254v-6.5l7.177 4.16c.662.384 1.5.158 1.892-.503.122-.2.187-.45.187-.694v-4.735c0-.5-.27-.96-.705-1.206zm-31.82 0l12.657-7.134c.666-.375 1.5-.14 1.886.526.117.207.178.442.178.68v30.97c0 .765-.62 1.385-1.385 1.385a1.39 1.39 0 0 1-.688-.183l-3.4-1.947c-.43-.247-.697-.705-.697-1.202V21.275l-7.177 4.16c-.662.384-1.5.158-1.892-.503-.122-.2-.187-.45-.187-.694v-4.735c0-.5.27-.96.705-1.206z"/></svg>