<svg xmlns="http://www.w3.org/2000/svg" width="56" height="56" xmlns:v="https://vecta.io/nano"><defs><filter x="-68.2%" y="-34.1%" width="236.4%" height="236.4%" ><feMorphology radius="10" in="SourceAlpha"/><feOffset dy="30"/><feGaussianBlur stdDeviation="25"/><feColorMatrix values="0 0 0 0 0 0 0 0 0 0 0 0 0 0 0 0 0 0 0.253851617 0"/></filter></defs><path d="M37.26 40.052l-7.182-12.07 7.182-12.07 3.462 12.07-3.462 12.07zm-15.985-1.178l-9.024-8.942h14.365l7.182 12.07-12.523-3.128zm0-21.82l12.486-3.128-7.182 12.07H12.214l9.06-8.942zM39.617 8L23.3 12.232 20.87 16.4l-4.898-.037L4 27.982 15.97 39.6l4.898-.037 2.43 4.158L39.617 48 44 32.14l-2.468-4.12L44 23.897 39.617 8z" fill="#fff"/></svg>